<svg width="29" height="28" viewBox="0 0 29 28" fill="none" xmlns="http://www.w3.org/2000/svg">
<path d="M12.0411 15.1703C12.2512 14.8275 12.4945 14.54 12.8372 14.3742C12.992 14.2968 13.0031 14.2415 12.9036 14.0977C12.4613 13.4122 12.4613 12.7156 12.8594 12.008C12.9146 11.9084 12.9699 11.8089 13.0584 11.7426C13.3348 11.5436 13.3569 11.2671 13.3569 10.9575C13.3459 8.17116 13.3459 5.38479 13.3569 2.59841C13.3569 2.3441 13.2906 2.24458 13.0363 2.27775C12.8594 2.29987 12.6824 2.28881 12.5055 2.2667C12.2512 2.24458 12.1075 2.06767 12.1296 1.83547C12.1517 1.59222 12.2844 1.45953 12.5276 1.44847C12.8151 1.43742 13.1026 1.43742 13.3901 1.44847C13.8877 1.47059 14.1862 1.76913 14.1973 2.2667C14.2083 2.53207 14.1973 2.80849 14.1973 3.07386C14.1973 5.65015 14.1973 8.21539 14.1862 10.7917C14.1862 11.0349 14.2304 11.1455 14.4847 11.0792C14.529 11.0681 14.5843 11.0681 14.6285 11.0792C14.8717 11.1345 14.9049 11.0128 14.8938 10.8027C14.8828 9.57541 14.8938 8.33702 14.8938 7.10968C14.8938 6.92171 14.8938 6.73375 14.9049 6.54578C14.927 6.19195 15.115 5.9487 15.4467 5.84918C15.6015 5.80495 15.6457 5.73861 15.6457 5.58381C15.6347 5.07519 15.6347 4.55551 15.6457 4.04688C15.6457 3.73728 15.8005 3.56037 16.0548 3.56037C16.3092 3.56037 16.475 3.73728 16.475 4.04688C16.4861 4.55551 16.4861 5.07519 16.475 5.58381C16.475 5.77178 16.5303 5.83812 16.7072 5.81601C17.2048 5.73861 17.5807 5.93764 17.9124 6.31358C18.222 6.6674 18.5537 6.98806 18.8965 7.30871C19.1619 7.55197 19.2724 7.83945 19.2724 8.20433C19.2614 9.06678 19.2724 9.94029 19.2614 10.8027C19.2614 11.0239 19.3167 11.0902 19.5378 11.0792C19.9469 11.0681 19.9469 11.0792 19.9469 10.659C19.9469 7.43034 19.9469 4.21274 19.9469 0.984078C19.9469 0.276426 20.2233 0.0110571 20.931 0C21.6387 0 22.3463 0 23.054 0C23.64 0 23.9275 0.29854 23.9385 0.873507C23.9385 1.27156 23.9496 1.66962 23.9385 2.07873C23.9385 2.23353 23.9938 2.28881 24.1486 2.28881C24.4693 2.27775 24.7789 2.27775 25.0995 2.28881C25.575 2.29987 25.8846 2.59841 25.8956 3.07386C25.9067 3.39452 25.9067 3.70411 25.8956 4.02477C25.8956 4.16851 25.9288 4.23485 26.0946 4.24591C26.5812 4.27908 26.8465 4.55551 26.8576 5.03096C26.8686 6.11455 26.8686 7.19814 26.8576 8.27068C26.8576 8.56922 26.6807 8.75719 26.4374 8.75719C26.1942 8.74613 26.0283 8.55816 26.0283 8.25962C26.0283 7.29766 26.0172 6.33569 26.0283 5.38479C26.0283 5.13047 25.962 5.07519 25.7187 5.07519C25.1769 5.0973 25.0663 4.96462 25.0663 4.42282C25.0663 4.069 25.0553 3.71517 25.0663 3.36134C25.0774 3.18443 25.0221 3.11809 24.8341 3.11809C24.4582 3.12915 24.0933 3.11809 23.7174 3.11809C23.2419 3.11809 23.1092 2.9854 23.1092 2.52101C23.1092 2.0345 23.0982 1.54799 23.1092 1.07253C23.1092 0.895621 23.065 0.829279 22.877 0.829279C22.2578 0.840336 21.6497 0.840336 21.0305 0.829279C20.8536 0.829279 20.7873 0.86245 20.7873 1.06148C20.7983 4.48916 20.7873 7.91685 20.7873 11.3556C20.7873 11.4883 20.8315 11.5767 20.9199 11.6762C21.5613 12.3728 21.6387 13.2906 21.119 14.0977C21.0305 14.2304 21.0305 14.2857 21.1743 14.3631C21.5723 14.5621 21.8598 14.8717 22.0256 15.2808C22.0809 15.4025 22.1473 15.4356 22.2689 15.4578C23.7395 15.7563 24.3587 17.1827 23.5847 18.4763C23.4962 18.6201 23.5294 18.6532 23.6621 18.7196C24.2813 19.0513 24.613 19.5931 24.6793 20.2897C24.7567 21.0416 24.812 21.7935 24.8673 22.5453C24.9115 23.0761 24.6462 23.3746 24.1044 23.3967C23.9164 23.4078 23.8501 23.452 23.8501 23.651C23.8611 24.4471 23.8611 25.2322 23.8501 26.0283C23.8501 26.1942 23.8943 26.2273 24.0491 26.2273C25.2322 26.2163 26.4153 26.2163 27.5984 26.2273C27.7753 26.2273 27.8085 26.172 27.8085 26.0062C27.8085 22.1141 27.8085 18.211 27.8085 14.3189C27.8085 14.1309 27.7421 14.0867 27.5652 14.0867C27.2003 14.0977 26.8355 14.0977 26.4706 14.0867C26.1389 14.0867 25.973 13.9429 25.973 13.6223C25.962 12.5387 25.962 11.4551 25.973 10.3826C25.973 10.0951 26.1499 9.91818 26.3821 9.90712C26.6254 9.90712 26.8023 10.0951 26.8023 10.3936C26.8023 11.245 26.8134 12.0854 26.8023 12.9368C26.7912 13.2021 26.8797 13.2685 27.134 13.2574C27.3551 13.2353 27.5763 13.2463 27.8085 13.2574C28.3282 13.2685 28.6378 13.5781 28.6378 14.0977C28.6378 15.3582 28.6378 16.6187 28.6378 17.8682C28.6378 20.7209 28.6378 23.5736 28.6378 26.4264C28.6378 26.935 28.5161 27.0566 28.0186 27.0566C18.8854 27.0566 9.75232 27.0566 0.619195 27.0566C0.132685 27.0566 0 26.935 0 26.4485C0 25.1769 0 23.9164 0 22.6448C0 22.3021 0.210084 22.092 0.48651 22.1473C0.740823 22.2026 0.840336 22.3905 0.840336 22.6448C0.840336 23.7284 0.851393 24.812 0.829279 25.8846C0.829279 26.161 0.906678 26.2163 1.17205 26.2163C2.38832 26.2052 3.61566 26.2052 4.83193 26.2163C5.05307 26.2163 5.13047 26.1831 5.13047 25.9288C5.10836 25.1659 5.11942 24.4029 5.13047 23.64C5.13047 23.452 5.08624 23.3857 4.88722 23.3746C4.33436 23.3525 4.08005 23.0318 4.12428 22.4679C4.19062 21.7603 4.25697 21.0526 4.31225 20.356C4.36754 19.6263 4.68819 19.0624 5.34056 18.7085C5.4843 18.6311 5.49536 18.5869 5.4069 18.4432C4.63291 17.2158 5.27421 15.7342 6.70057 15.4467C6.85537 15.4135 6.93277 15.3582 6.99911 15.2145C7.16497 14.8386 7.43034 14.54 7.80628 14.3521C8.00531 14.2525 7.97214 14.1862 7.87262 14.0314C7.4414 13.3348 7.4414 12.6161 7.88368 11.9195C8.33702 11.234 9.00044 10.9354 9.80761 11.0571C10.6148 11.1787 11.1455 11.6762 11.3888 12.4613C11.5546 13.0252 11.4551 13.567 11.1345 14.0646C11.046 14.1973 11.0349 14.2525 11.1897 14.3299C11.5767 14.54 11.831 14.8275 12.0411 15.1703ZM17.0168 15.1703C17.2379 14.8275 17.4812 14.54 17.835 14.3742C18.0009 14.2968 17.9788 14.2415 17.8903 14.1199C17.3264 13.2353 17.4812 12.207 18.2773 11.5325C18.3989 11.433 18.4432 11.3224 18.4432 11.1787C18.4432 10.4379 18.3989 9.70809 18.4542 8.97833C18.4984 8.32596 18.2773 7.87262 17.824 7.39717C17.2932 6.84432 16.7514 6.55683 15.9996 6.67846C15.9774 6.67846 15.9664 6.67846 15.9443 6.67846C15.7784 6.65635 15.7452 6.73375 15.7452 6.88854C15.7452 8.37019 15.7452 9.85183 15.7452 11.3335C15.7452 11.4441 15.7674 11.5215 15.8448 11.6099C16.6077 12.4171 16.6851 13.1911 16.1212 14.1641C16.077 14.2415 16.0327 14.2968 16.1544 14.3521C16.5192 14.5179 16.7957 14.8054 17.0168 15.1703ZM11.621 24.5356C11.621 24.0159 11.621 23.4962 11.621 22.9655C11.621 22.7222 11.7979 22.5564 12.019 22.5453C12.2402 22.5343 12.4171 22.7001 12.4502 22.9323C12.4613 23.0097 12.4502 23.0761 12.4502 23.1535C12.4502 24.0933 12.4502 25.0332 12.4502 25.973C12.4502 26.0504 12.395 26.161 12.5166 26.2163C12.8151 26.349 13.0694 26.172 13.0694 25.8514C13.0694 24.9447 13.0694 24.0491 13.0694 23.1424C13.0694 22.7001 13.2021 22.5674 13.6555 22.5564C13.7218 22.5564 13.7881 22.5453 13.8545 22.5564C14.0203 22.5785 14.0867 22.5232 14.0646 22.3352C13.9982 21.6718 13.954 20.9973 13.8766 20.3339C13.8103 19.7147 13.3901 19.3388 12.7709 19.3277C12.2623 19.3167 11.7426 19.3167 11.234 19.3277C10.6258 19.3388 10.2057 19.7479 10.1504 20.356C10.0951 20.9421 10.0398 21.5281 9.99558 22.1141C9.95135 22.5453 9.95135 22.5453 10.3936 22.5564C10.847 22.5564 10.9797 22.6891 10.9797 23.1424C10.9797 23.7727 10.9797 24.414 10.9797 25.0442C10.9797 25.3538 10.9797 25.6634 10.9797 25.962C10.9797 26.2826 11.2119 26.1942 11.3998 26.2163C11.621 26.2494 11.6099 26.1057 11.6099 25.962C11.621 25.5086 11.621 25.0221 11.621 24.5356ZM16.5966 24.5356C16.5966 24.0159 16.5966 23.4962 16.5966 22.9655C16.5966 22.7222 16.7735 22.5564 16.9947 22.5453C17.2158 22.5343 17.3927 22.7001 17.4259 22.9323C17.437 23.0097 17.4259 23.0761 17.4259 23.1535C17.4259 24.0933 17.4259 25.0332 17.4259 25.973C17.4259 26.0615 17.3596 26.1831 17.5144 26.2273C17.8793 26.3158 18.0451 26.1942 18.0451 25.8293C18.0451 24.9337 18.0451 24.038 18.0451 23.1424C18.0451 22.7001 18.1778 22.5674 18.6311 22.5564C18.6864 22.5564 18.7417 22.5453 18.797 22.5564C18.985 22.5785 19.0624 22.5122 19.0402 22.3131C18.9739 21.6608 18.9297 20.9973 18.8523 20.3339C18.7859 19.7147 18.3658 19.3388 17.7466 19.3277C17.249 19.3167 16.7404 19.3167 16.2428 19.3277C15.6015 19.3388 15.1813 19.7479 15.126 20.3892C15.0818 20.9642 15.0265 21.5391 14.9712 22.1141C14.927 22.5453 14.927 22.5453 15.3693 22.5564C15.8226 22.5564 15.9553 22.6891 15.9553 23.1424C15.9553 23.7837 15.9553 24.425 15.9553 25.0663C15.9553 25.3649 15.9553 25.6634 15.9553 25.962C15.9553 26.2826 16.1875 26.1942 16.3755 26.2163C16.5966 26.2494 16.5856 26.1057 16.5856 25.962C16.5966 25.5086 16.5966 25.0221 16.5966 24.5356ZM7.48563 24.5024C7.48563 25 7.48563 25.5086 7.48563 26.0062C7.48563 26.0836 7.4414 26.1831 7.54091 26.2273C7.79522 26.36 8.10482 26.1831 8.10482 25.8956C8.10482 25.0553 8.10482 24.2149 8.10482 23.3857C8.10482 22.6338 8.13799 22.5896 8.87881 22.5785C8.90093 22.5785 8.91198 22.5785 8.9341 22.5785C9.06678 22.5896 9.11101 22.5343 9.09995 22.4016C9.03361 21.6829 8.98938 20.9752 8.88987 20.2565C8.82353 19.7258 8.40336 19.372 7.87262 19.3609C7.31977 19.3498 6.77797 19.3498 6.22512 19.3609C5.68333 19.372 5.2521 19.77 5.19682 20.3229C5.13047 20.9752 5.08624 21.6387 5.0199 22.3021C4.98673 22.5564 5.08624 22.5896 5.30739 22.5896C5.92658 22.5785 6.01504 22.667 6.01504 23.2972C6.01504 24.1818 6.02609 25.0663 6.01504 25.9509C6.01504 26.2716 6.22512 26.2273 6.4352 26.2494C6.67846 26.2716 6.65635 26.1278 6.65635 25.973C6.65635 25.0221 6.65635 24.0712 6.65635 23.1203C6.65635 22.7444 6.81114 22.5453 7.07651 22.5564C7.35294 22.5564 7.49668 22.7554 7.49668 23.1314C7.48563 23.5958 7.48563 24.0491 7.48563 24.5024ZM22.4126 24.5356C22.4126 25.0442 22.4126 25.5418 22.4126 26.0394C22.4126 26.1057 22.3795 26.1942 22.4679 26.2384C22.7222 26.3711 23.0318 26.1942 23.0318 25.9177C23.0318 25 23.0318 24.0933 23.0318 23.1756C23.0318 22.7222 23.1645 22.5896 23.6068 22.5785C23.6731 22.5785 23.7395 22.5674 23.8058 22.5785C23.9938 22.6006 24.0491 22.5343 24.027 22.3463C23.9606 21.6829 23.9164 21.0084 23.839 20.345C23.7727 19.7479 23.3525 19.372 22.7444 19.3609C22.2357 19.3498 21.7161 19.3498 21.2074 19.3609C20.5993 19.372 20.1681 19.77 20.1128 20.3781C20.0575 20.9863 20.0022 21.6055 19.9469 22.2136C19.9138 22.5785 19.9138 22.5785 20.2786 22.5785C20.8204 22.5785 20.931 22.6891 20.931 23.2419C20.931 24.1375 20.9421 25.0332 20.931 25.9288C20.931 26.2273 21.0858 26.2384 21.318 26.2605C21.5834 26.2826 21.5613 26.1278 21.5613 25.9509C21.5613 24.9889 21.5613 24.027 21.5613 23.0761C21.5613 22.7554 21.7271 22.5564 21.9814 22.5674C22.2357 22.5674 22.4016 22.7554 22.4016 23.0871C22.4237 23.5626 22.4126 24.0491 22.4126 24.5356ZM9.54224 19.5157C9.68598 19.3388 9.79655 19.195 9.91818 19.0624C10.0509 18.9186 10.2167 18.808 10.3936 18.7196C10.5153 18.6643 10.5153 18.609 10.4489 18.5095C9.80761 17.636 10.0398 16.2096 11.1787 15.6568C11.3003 15.6015 11.3003 15.5462 11.234 15.4467C11.046 15.1813 10.7917 15.0155 10.471 14.9934C9.86289 14.9602 9.26581 14.9602 8.65767 14.9934C8.38125 15.0044 8.16011 15.1482 7.98319 15.3472C7.85051 15.4909 7.76205 15.6126 8.02742 15.701C8.11588 15.7342 8.20433 15.8005 8.28173 15.8669C9.07784 16.4971 9.25475 17.5807 8.71296 18.4542C8.66873 18.5316 8.51393 18.6201 8.7019 18.7085C9.05573 18.8965 9.3211 19.1619 9.54224 19.5157ZM19.5046 19.5378C19.7147 19.2061 19.9469 18.9297 20.2676 18.7749C20.4666 18.6754 20.4666 18.609 20.356 18.4321C19.7811 17.5254 20.0464 16.3644 20.931 15.7784C21.2848 15.5462 21.2848 15.4578 20.931 15.2034C20.7762 15.0929 20.6103 15.0155 20.4224 15.0044C19.8142 14.9713 19.2172 14.9713 18.609 15.0044C18.2994 15.0265 18.0672 15.1813 17.8793 15.4135C17.7797 15.5352 17.7687 15.6015 17.9345 15.6789C18.3215 15.8669 18.609 16.1765 18.7859 16.5635C19.0845 17.2269 19.0402 17.8682 18.6422 18.4763C18.5758 18.5869 18.5316 18.6532 18.6864 18.7306C19.0292 18.8965 19.2835 19.1729 19.5046 19.5378ZM14.529 19.5378C14.728 19.2061 14.9602 18.9297 15.2808 18.7749C15.4688 18.6754 15.4799 18.6201 15.3693 18.4321C14.7943 17.5254 15.0597 16.3644 15.9443 15.7674C16.0438 15.701 16.2539 15.69 16.2318 15.5241C16.2207 15.3804 16.077 15.2808 15.9553 15.1924C15.8005 15.0818 15.6347 15.0044 15.4467 14.9934C14.8386 14.9602 14.2415 14.9602 13.6333 14.9934C13.3348 15.0155 13.1026 15.1592 12.9146 15.3804C12.8041 15.513 12.782 15.5904 12.9699 15.69C13.3016 15.8558 13.567 16.1101 13.7439 16.4418C14.1088 17.1274 14.0867 17.8019 13.6886 18.4653C13.6444 18.5316 13.4896 18.6201 13.6665 18.7085C14.0203 18.8854 14.2968 19.1619 14.529 19.5378ZM14.529 14.1309C15.1371 14.1309 15.6347 13.6444 15.6347 13.0363C15.6457 12.4171 15.1371 11.9195 14.5179 11.9195C13.8987 11.9195 13.4011 12.4171 13.4122 13.0363C13.4233 13.6555 13.9208 14.142 14.529 14.1309ZM19.5157 11.9195C18.8965 11.9195 18.3879 12.406 18.3879 13.0252C18.3879 13.6333 18.8854 14.1199 19.4825 14.1309C20.1017 14.142 20.6103 13.6333 20.6103 13.0252C20.6214 12.4171 20.1238 11.9306 19.5157 11.9195ZM9.54224 11.9195C8.9341 11.9195 8.43653 12.406 8.43653 13.0142C8.42547 13.6333 8.9341 14.1309 9.55329 14.1309C10.1614 14.1309 10.659 13.6444 10.6701 13.0363C10.6701 12.4281 10.1614 11.9195 9.54224 11.9195ZM8.16011 17.4149C8.16011 16.7846 7.67359 16.2981 7.04334 16.2981C6.4352 16.2981 5.94869 16.7846 5.93764 17.4038C5.93764 18.023 6.4352 18.5316 7.0544 18.5206C7.67359 18.5095 8.16011 18.023 8.16011 17.4149ZM13.1468 17.4149C13.1579 16.7846 12.6603 16.2981 12.0411 16.287C11.433 16.287 10.9465 16.7736 10.9354 17.3817C10.9244 18.0009 11.4219 18.5095 12.0411 18.5095C12.6382 18.5206 13.1358 18.023 13.1468 17.4149ZM18.1225 17.3927C18.1225 16.7846 17.636 16.2981 17.0279 16.287C16.4087 16.287 15.9111 16.7736 15.9111 17.4038C15.9111 18.0119 16.3976 18.5095 17.0057 18.5095C17.6249 18.5206 18.1225 18.023 18.1225 17.3927ZM23.0982 17.3927C23.0982 16.7846 22.6117 16.2981 22.0035 16.2981C21.3843 16.2981 20.8868 16.7957 20.8978 17.4149C20.8978 18.023 21.3954 18.5206 21.9925 18.5206C22.6006 18.5206 23.0982 18.023 23.0982 17.3927ZM10.1504 24.8452C10.1504 24.4471 10.1393 24.0491 10.1504 23.64C10.1504 23.4741 10.0951 23.4299 9.92923 23.4078C9.66386 23.3857 9.39849 23.3967 9.13313 23.4078C8.98938 23.4188 8.94516 23.4741 8.94516 23.6068C8.94516 24.425 8.94516 25.2433 8.94516 26.0615C8.94516 26.2052 8.98938 26.2384 9.12207 26.2384C9.39849 26.2273 9.68598 26.2273 9.9624 26.2384C10.1172 26.2494 10.1725 26.1942 10.1614 26.0283C10.1393 25.6413 10.1504 25.2433 10.1504 24.8452ZM13.9208 24.8452C13.9208 25.2543 13.9208 25.6634 13.9208 26.0725C13.9208 26.2052 13.954 26.2494 14.0867 26.2494C14.3742 26.2384 14.6617 26.2384 14.9491 26.2494C15.0708 26.2494 15.126 26.2273 15.126 26.0836C15.115 25.2654 15.115 24.4471 15.126 23.6289C15.126 23.4852 15.0818 23.4299 14.9381 23.4299C14.6838 23.4188 14.4295 23.3967 14.1641 23.4188C13.9761 23.441 13.9098 23.4741 13.9098 23.6732C13.9319 24.0601 13.9208 24.4582 13.9208 24.8452ZM20.1128 24.8673C20.1128 24.4693 20.1017 24.0712 20.1128 23.6621C20.1128 23.4962 20.0796 23.4188 19.8916 23.4078C19.6373 23.3857 19.383 23.3967 19.1176 23.4078C18.9407 23.4188 18.9076 23.4852 18.9076 23.64C18.9186 24.4361 18.9186 25.2433 18.9076 26.0394C18.9076 26.172 18.9297 26.2384 19.0845 26.2384C19.372 26.2273 19.6594 26.2273 19.9469 26.2384C20.0796 26.2384 20.1238 26.1942 20.1128 26.0615C20.1017 25.6745 20.1128 25.2764 20.1128 24.8673Z" fill="white"/>
<path d="M3.73732 3.48402C3.73732 3.62776 3.73732 3.72727 3.73732 3.82679C3.73732 6.40308 3.73732 8.99043 3.73732 11.5667C3.73732 12.0753 3.6157 12.1859 3.11813 12.197C2.87487 12.197 2.57633 12.0864 2.42153 12.2523C2.27779 12.396 2.37731 12.6945 2.37731 12.9267C2.37731 13.8445 2.37731 14.7733 2.37731 15.691C2.37731 16.1443 2.23356 16.277 1.80234 16.277C1.5812 16.277 1.349 16.2881 1.12786 16.277C0.928832 16.266 0.884604 16.3323 0.884604 16.5313C0.895661 17.8361 0.884604 19.1408 0.884604 20.4455C0.884604 20.5561 0.895661 20.6667 0.840376 20.7772C0.75192 20.9542 0.608178 21.0426 0.409151 21.0094C0.199067 20.9763 0.0774393 20.8436 0.0553252 20.6335C0.0332111 20.4677 0.0442682 20.3018 0.0442682 20.1359C0.0442682 18.8865 0.0442682 17.637 0.0442682 16.3876C0.0442682 15.7352 0.320694 15.4477 0.973061 15.4477C1.53697 15.4477 1.53697 15.4477 1.53697 14.8728C1.53697 13.9993 1.53697 13.1258 1.53697 12.2412C1.53697 11.6331 1.82445 11.3566 2.43259 11.3566C2.90805 11.3566 2.90805 11.3566 2.90805 10.8922C2.90805 7.61936 2.90805 4.34647 2.90805 1.08464C2.90805 0.99618 2.90805 0.918781 2.90805 0.830324C2.93016 0.576012 3.10707 0.410156 3.33927 0.410156C3.57147 0.421213 3.73732 0.587069 3.73732 0.852438C3.74838 1.25049 3.73732 1.64855 3.73732 2.05766C3.73732 2.15717 3.73732 2.25668 3.82578 2.33408C4.55555 3.06385 5.28531 3.79361 6.08142 4.58972C6.08142 4.24695 6.08142 3.98158 6.08142 3.72727C6.08142 3.3845 6.22516 3.20759 6.49053 3.19653C6.76696 3.18548 6.92176 3.3845 6.92176 3.72727C6.92176 5.54063 6.92176 7.36504 6.92176 9.1784C6.92176 9.28897 6.84436 9.46588 6.99916 9.49905C7.17607 9.54328 7.36404 9.52117 7.55201 9.49905C7.61835 9.488 7.59624 9.38848 7.59624 9.32214C7.59624 9.06783 7.59624 8.81352 7.59624 8.57026C7.59624 8.00635 7.89478 7.70781 8.45869 7.6857C8.82357 7.67464 8.82357 7.67464 8.82357 7.30976C8.82357 5.66226 8.82357 4.01476 8.82357 2.3562C8.82357 1.71489 9.09999 1.43846 9.7413 1.43846C10.0067 1.43846 10.261 1.42741 10.5264 1.43846C10.8028 1.44952 10.9576 1.60432 10.9576 1.84757C10.9576 2.09083 10.8028 2.24563 10.5264 2.26774C10.3384 2.2788 10.1504 2.28986 9.96245 2.26774C9.73025 2.24563 9.64179 2.31197 9.65285 2.56628C9.67496 4.34647 9.66391 6.1156 9.66391 7.87367C9.66391 7.96212 9.67496 8.03952 9.66391 8.12798C9.63073 8.37123 9.49805 8.52603 9.24374 8.52603C9.04471 8.53709 8.85674 8.53709 8.65771 8.52603C8.49186 8.51498 8.42552 8.55921 8.43657 8.74718C8.44763 9.12311 8.44763 9.488 8.43657 9.86394C8.43657 10.2067 8.28177 10.3615 7.939 10.3615C7.48567 10.3615 7.02127 10.3726 6.56793 10.3615C6.22516 10.3615 6.08142 10.2067 6.08142 9.85288C6.08142 8.58132 6.08142 7.2987 6.08142 6.02714C6.08142 5.89445 6.08142 5.77283 5.97085 5.67331C5.2632 4.96566 4.55555 4.25801 3.84789 3.56142C3.83684 3.5393 3.80367 3.52825 3.73732 3.48402Z" fill="white"/>
</svg>
