<svg width="24" height="23" viewBox="0 0 24 23" fill="none" xmlns="http://www.w3.org/2000/svg">
<path d="M8.90336 2.77483C8.3442 3.25012 7.75708 3.72541 7.19792 4.20069C6.75059 4.56415 6.30327 4.95556 5.85594 5.31902C5.66023 5.48676 5.46452 5.68247 5.24086 5.40289C5.0172 5.12331 5.24086 4.95556 5.43657 4.75985C6.91834 3.55766 8.37216 2.32751 9.85393 1.09735C10.1335 0.873688 10.4131 0.622066 10.6927 0.398402C11.3357 -0.132801 11.839 -0.132801 12.482 0.398402C14.0476 1.71243 15.6133 3.05441 17.1789 4.36844C19.0242 5.93409 20.8974 7.5277 22.7426 9.09335C23.1899 9.48476 23.3297 9.87617 23.162 10.3235C22.9942 10.7429 22.6308 10.9945 22.0716 10.9945C21.792 10.9945 21.7081 11.0784 21.7081 11.3579C21.7361 12.0289 21.4286 12.3644 20.7855 12.4763C20.5898 12.5042 20.5619 12.644 20.5619 12.7838C20.5339 13.2591 20.3941 13.6785 20.2823 14.1258C20.1984 14.3774 20.0586 14.5172 19.807 14.4333C19.5554 14.3495 19.5554 14.1538 19.6392 13.9301C19.779 13.5666 19.835 13.1752 19.9188 12.8118C19.9468 12.6161 19.9468 12.5042 19.6672 12.4763C19.164 12.4204 18.8285 12.0289 18.8285 11.4977C18.8285 10.9945 18.8285 10.9945 18.3252 10.9945C13.824 10.9945 9.32273 10.9945 4.82149 10.9945C4.51395 10.9945 4.40212 11.0504 4.43008 11.3859C4.45803 12.001 4.1505 12.3924 3.56338 12.4483C3.31176 12.4763 3.33971 12.6161 3.36767 12.7838C3.50746 13.6225 3.75908 14.4054 4.23437 15.1043C4.26233 15.1323 4.29029 15.1882 4.31824 15.2162C4.45803 15.4119 4.45803 15.6076 4.23437 15.7474C4.03866 15.8592 3.87092 15.7753 3.73113 15.5796C3.33971 14.9645 3.03218 14.3215 2.83647 13.5946C2.80851 13.4548 2.7526 13.315 2.7526 13.1752C2.72464 12.7559 2.66872 12.4204 2.13752 12.3365C1.71815 12.2526 1.49448 11.8332 1.52244 11.3859C1.5504 11.0784 1.49448 10.9665 1.13103 10.9665C0.571869 10.9945 0.208414 10.7149 0.0686243 10.2676C-0.0991239 9.7923 0.0406662 9.42885 0.487995 9.06539C1.66223 8.0589 2.83647 7.08037 4.01071 6.07388C4.20641 5.90613 4.40212 5.7943 4.59783 6.01797C4.76557 6.24163 4.65374 6.40938 4.45803 6.57713C3.2838 7.55566 2.13752 8.56215 0.963281 9.54068C0.823491 9.68047 0.599827 9.7923 0.711659 10.0439C0.823491 10.2955 1.04716 10.2676 1.24286 10.2676C1.99773 10.2676 2.7526 10.2676 3.50746 10.2676C3.70317 10.2676 3.815 10.2117 3.92683 10.0719C5.57636 7.7234 7.22588 5.37493 8.90336 3.05441C8.95928 2.97054 8.98724 2.91462 9.04315 2.83075C8.93132 2.80279 8.90336 2.80279 8.90336 2.77483ZM18.6048 10.2955C16.5359 7.35995 14.5229 4.53619 12.5379 1.71243C12.5379 1.99201 12.6218 2.24363 12.6777 2.4673C13.0411 3.78132 13.4046 5.12331 13.7681 6.43734C13.8519 6.68896 13.796 6.88466 13.5164 6.94058C13.2648 6.9965 13.153 6.82875 13.0971 6.60508C12.6777 5.09535 12.2863 3.58562 11.8669 2.07588C11.783 1.7963 11.7551 1.48877 11.5594 1.15327C11.2798 2.15976 11.0282 3.11033 10.7765 4.03295C10.2174 6.01797 9.68619 7.97503 9.12703 9.96005C9.07111 10.2117 9.07111 10.3235 9.37865 10.2955C10.1894 10.2676 11.0282 10.2955 11.839 10.2955C12.5938 10.2955 13.3487 10.2955 14.1315 10.2955C13.9638 9.65251 13.796 9.03743 13.6283 8.42236C13.5444 8.17073 13.5444 7.94707 13.824 7.8632C14.1315 7.77932 14.2154 8.03094 14.2713 8.25461C14.4391 8.86969 14.6068 9.48476 14.7745 10.0998C14.8025 10.2396 14.8584 10.2955 15.0262 10.2955C16.1724 10.2955 17.3467 10.2955 18.6048 10.2955ZM4.54191 10.2955C5.80002 10.2955 6.9463 10.2955 8.12054 10.2955C8.31624 10.2955 8.3442 10.1837 8.40012 10.0439C9.07111 7.58362 9.7421 5.12331 10.4411 2.69096C10.5249 2.38342 10.6088 2.07588 10.6927 1.76835C10.6647 1.76835 10.6368 1.76835 10.6368 1.74039C8.59582 4.56415 6.58285 7.38791 4.54191 10.2955ZM14.2433 2.77483C14.2154 2.80279 14.2154 2.83075 14.1874 2.83075C15.8929 5.2631 17.6263 7.69545 19.3317 10.1278C19.4156 10.2396 19.4995 10.2955 19.6392 10.2955C20.478 10.2955 21.3167 10.2955 22.1555 10.2955C22.3232 10.2955 22.463 10.2396 22.5189 10.0719C22.5748 9.90413 22.491 9.7923 22.3791 9.68047C22.3232 9.62455 22.2953 9.59659 22.2393 9.56863C20.0586 7.72341 17.9058 5.87818 15.7531 4.0609C15.2498 3.64153 14.7466 3.22216 14.2433 2.77483ZM2.9483 10.9945C2.80851 10.9945 2.66872 10.9945 2.52893 10.9945C2.10956 10.9945 2.0816 11.0504 2.13752 11.4418C2.16548 11.6655 2.30527 11.7773 2.52893 11.8053C2.78055 11.8053 3.06013 11.8053 3.31176 11.8053C3.67521 11.8053 3.70317 11.5537 3.73113 11.2461C3.75908 10.8827 3.50746 10.9945 3.31176 10.9945C3.19992 10.9945 3.06013 10.9945 2.9483 10.9945ZM20.2264 11.8053C20.3941 11.8053 20.5339 11.8332 20.7017 11.8053C21.0371 11.7494 21.0092 11.4698 21.0371 11.2182C21.0371 10.9106 20.8135 11.0225 20.6737 11.0225C20.3382 11.0225 20.0027 11.0225 19.6672 11.0225C19.5833 11.0225 19.4995 10.9945 19.4435 11.1063C19.2758 11.4139 19.4995 11.8332 19.8629 11.8332C19.9747 11.8053 20.0866 11.8053 20.2264 11.8053Z" fill="#004FA8"/>
<path d="M12.3975 19.2136C12.733 19.9685 13.0405 20.6675 13.348 21.3664C13.376 21.4223 13.4039 21.5062 13.4319 21.5621C13.5437 21.7858 13.5717 22.0094 13.3201 22.1213C13.0684 22.2331 12.9287 22.0933 12.8168 21.8417C12.4813 21.0589 12.1179 20.2761 11.7824 19.4932C11.7265 19.3814 11.7265 19.2416 11.5867 19.2136C11.4189 19.2136 11.4189 19.3814 11.363 19.4653C11.0275 20.2481 10.6641 21.003 10.3286 21.7858C10.2167 22.0094 10.1049 22.2331 9.82532 22.0933C9.51778 21.9535 9.60165 21.7299 9.71348 21.4782C10.021 20.8073 10.3006 20.1363 10.6081 19.4653C10.692 19.2416 10.692 19.1577 10.4124 19.1857C10.1049 19.2136 9.7694 19.1857 9.46186 19.1857C9.07045 19.1857 8.79087 18.99 8.707 18.6265C8.65108 18.4308 8.5672 18.4029 8.39946 18.3749C7.14135 18.2631 6.02302 17.8157 5.01654 17.0329C4.96062 17.005 4.93266 16.949 4.87675 16.9211C4.709 16.7813 4.62512 16.6135 4.76491 16.4178C4.93266 16.2221 5.12837 16.2501 5.29612 16.3899C5.7714 16.7813 6.3026 17.0888 6.88972 17.3125C7.39297 17.5082 7.92417 17.62 8.48333 17.676C8.62312 17.7039 8.67904 17.676 8.707 17.5362C8.84679 17.1448 9.15432 16.977 9.57369 16.977C10.8598 16.977 12.1738 16.977 13.4599 16.977C13.9072 16.977 14.2147 17.1168 14.3545 17.5362C14.4104 17.676 14.4943 17.676 14.6061 17.648C16.2836 17.4802 17.6536 16.6974 18.688 15.3834C18.716 15.3275 18.7439 15.2716 18.7998 15.2436C18.9396 15.1038 19.0794 15.0199 19.2751 15.1597C19.4429 15.2995 19.4708 15.4673 19.331 15.635C18.9676 16.1662 18.5482 16.6135 18.045 17.005C17.0385 17.7878 15.9202 18.2072 14.6621 18.3469C14.4943 18.3749 14.4104 18.3749 14.3545 18.5706C14.2706 18.962 13.9911 19.1577 13.5717 19.1577C13.2362 19.2416 12.8448 19.2136 12.3975 19.2136ZM11.5587 18.5427C12.2017 18.5427 12.8168 18.5427 13.4599 18.5427C13.7954 18.5427 13.7674 18.3469 13.7394 18.1233C13.7394 17.9276 13.8233 17.676 13.4599 17.676C12.2017 17.676 10.9436 17.676 9.68553 17.676C9.32207 17.676 9.37799 17.8717 9.37799 18.0953C9.37799 18.319 9.32207 18.5427 9.68553 18.5147C10.3006 18.5427 10.9436 18.5427 11.5587 18.5427Z" fill="#004FA8"/>
</svg>
