<svg width="64" height="50" viewBox="0 0 64 50" fill="none" xmlns="http://www.w3.org/2000/svg">
<path d="M24.8013 38.6152L27.1407 31.6762H25.6438L23.9587 37.0094L22.2636 31.6762H20.7766L23.1062 38.6152H24.8013ZM28.1902 38.6152H29.5582V31.6762H28.1902V38.6152ZM33.4862 38.754C34.2297 38.754 34.8343 38.5657 35.3003 38.189C35.7662 37.8123 36.0041 37.3067 36.0041 36.6624C36.0041 36.2659 35.895 35.9189 35.7463 35.681C35.6175 35.4431 35.3003 35.1953 35.0921 35.0664C34.993 34.997 34.8443 34.9277 34.6559 34.8583C34.4676 34.779 34.3189 34.7195 34.2098 34.6898L33.734 34.5311C33.2186 34.3725 32.8716 34.2238 32.6833 34.095C32.5048 33.9562 32.4156 33.7778 32.4156 33.5597C32.4156 33.1533 32.7626 32.8658 33.3276 32.8658C33.9323 32.8658 34.3784 33.1632 34.6559 33.7579L35.8058 33.0938C35.33 32.1124 34.4477 31.5375 33.3276 31.5375C32.7031 31.5375 32.1579 31.7258 31.7118 32.1025C31.2657 32.4693 31.0476 32.9748 31.0476 33.5993C31.0476 34.2338 31.2756 34.7096 31.7019 35.0268C32.1381 35.3341 32.5147 35.4828 33.1393 35.6711C33.7043 35.8297 34.0909 35.9784 34.309 36.1172C34.5271 36.2461 34.6361 36.4344 34.6361 36.6822C34.6361 37.1085 34.2891 37.4158 33.5259 37.4158C32.7328 37.4158 32.1975 37.0589 31.9299 36.3551L30.7602 37.0391C31.1468 38.0998 32.1083 38.754 33.4862 38.754ZM43.1183 38.6152L40.6798 31.6762H38.9847L36.556 38.6152H38.033L38.4494 37.3662H41.2151L41.6314 38.6152H43.1183ZM39.8372 33.2524L40.7888 36.0875H38.8856L39.8372 33.2524Z" fill="white"/>
<path d="M31.2938 8.65002C27.0669 8.65002 22.8336 8.65635 18.6067 8.64369C18.3093 8.64369 18.2397 8.72595 18.246 9.0107C18.2524 13.0478 18.2524 17.0912 18.2524 21.1283C18.2524 21.913 18.6067 22.2673 19.3913 22.2673C22.416 22.2673 25.447 22.2673 28.4717 22.2673C28.9969 22.2673 29.269 22.4571 29.2753 22.8178C29.2816 23.1912 29.0032 23.3873 28.459 23.3873C25.4533 23.3873 22.4476 23.3873 19.442 23.3873C17.9866 23.3873 17.1387 22.5394 17.1387 21.0904C17.1387 14.8259 17.1387 8.56143 17.1387 2.29697C17.1387 0.847917 17.9866 0 19.442 0C27.3643 0 35.2803 0 43.2026 0C44.639 0 45.4869 0.854245 45.4869 2.27799C45.4869 8.5551 45.4869 14.8259 45.4869 21.103C45.4869 22.5331 44.6327 23.3873 43.2026 23.3873C40.0831 23.3873 36.9572 23.3873 33.8376 23.3873C33.7427 23.3873 33.6477 23.3937 33.5528 23.381C33.2618 23.343 33.034 23.1089 33.0276 22.8368C33.0213 22.5584 33.2554 22.3053 33.5655 22.2736C33.6604 22.261 33.7553 22.2673 33.8502 22.2673C36.9635 22.2673 40.0704 22.2673 43.1837 22.2673C44.0379 22.2673 44.3796 21.9319 44.3796 21.084C44.3796 17.0659 44.3733 13.0478 44.3859 9.02969C44.3859 8.69431 44.2847 8.63737 43.9809 8.64369C39.7477 8.65635 35.5208 8.65002 31.2938 8.65002ZM31.3002 7.53001C35.5397 7.53001 39.773 7.53001 44.0126 7.53634C44.3037 7.53634 44.3859 7.46041 44.3796 7.16933C44.3669 5.53677 44.3733 3.90422 44.3733 2.26533C44.3733 1.46171 44.0189 1.12001 43.209 1.12001C35.274 1.12001 27.3327 1.12001 19.3977 1.12001C18.5941 1.12001 18.2524 1.46804 18.246 2.27799C18.246 3.89156 18.246 5.50513 18.246 7.11871C18.246 7.53001 18.246 7.53001 18.651 7.53001C22.8716 7.53001 27.0859 7.53001 31.3002 7.53001Z" fill="white"/>
<path d="M25.2071 10.5742C26.3904 10.5742 27.5673 10.5742 28.7506 10.5742C29.6934 10.5742 30.2376 11.1247 30.244 12.0739C30.244 14.3076 30.244 16.5476 30.244 18.7813C30.244 19.7115 29.6745 20.281 28.7443 20.281C26.384 20.281 24.0175 20.281 21.6572 20.281C20.7334 20.281 20.1449 19.7051 20.1449 18.7876C20.1386 16.5413 20.1386 14.2949 20.1449 12.0486C20.1449 11.1374 20.7207 10.5742 21.6382 10.5742C22.8278 10.5742 24.0175 10.5742 25.2071 10.5742ZM25.1944 19.1673C26.3461 19.1673 27.4914 19.161 28.643 19.1736C28.8645 19.1736 28.9151 19.1103 28.8455 18.9079C28.6683 18.3763 28.314 18.0346 27.8014 17.8385C27.4155 17.6929 27.0295 17.5537 26.6435 17.4145C26.441 17.3386 26.1942 17.2563 26.1373 17.0665C25.9474 16.4147 25.4539 16.4907 24.9666 16.516C24.897 16.5223 24.8148 16.5096 24.7451 16.4907C24.5996 16.44 24.5363 16.5033 24.4984 16.6362C24.3781 17.0475 24.0934 17.288 23.7074 17.4335C23.3341 17.5727 22.9544 17.7056 22.5811 17.8448C22.0875 18.0283 21.7458 18.3637 21.556 18.8572C21.4674 19.0977 21.4864 19.1863 21.7774 19.1863C22.9228 19.1546 24.0618 19.1673 25.1944 19.1673ZM26.6371 13.5609C26.6371 13.3837 26.6498 13.2002 26.6371 13.0231C26.5865 12.308 26.0107 11.7322 25.3083 11.6879C24.549 11.6436 23.9036 12.1308 23.7833 12.8649C23.7137 13.2951 23.7201 13.7254 23.777 14.1557C23.8593 14.7758 24.3022 15.2378 24.9033 15.3706C25.4982 15.4972 26.0866 15.2441 26.4283 14.7189C26.6625 14.3645 26.6498 13.9659 26.6371 13.5609ZM29.1429 17.3512C29.1429 16.5856 29.1429 15.9148 29.1429 15.2378C29.1429 14.1937 29.1429 13.1496 29.1429 12.1119C29.1429 11.9157 29.1303 11.7006 28.8708 11.6942C28.3709 11.6816 27.8711 11.6879 27.3016 11.6879C27.7825 12.3776 27.7635 13.118 27.7572 13.8583C27.7445 14.5797 27.5294 15.2188 27.0231 15.7566C26.7953 15.9971 26.8713 16.3008 27.175 16.4211C27.8268 16.6805 28.5291 16.8324 29.1429 17.3512ZM21.2586 17.3386C21.866 16.8324 22.5494 16.6805 23.1949 16.4274C23.5429 16.2882 23.6062 16.0034 23.353 15.725C22.8974 15.2314 22.6507 14.6556 22.6443 13.9785C22.638 13.2002 22.5684 12.4156 23.0936 11.6879C22.5304 11.6879 22.0369 11.6879 21.5433 11.6879C21.3218 11.6879 21.2586 11.8334 21.2586 12.0233C21.2586 13.7697 21.2586 15.5099 21.2586 17.3386Z" fill="white"/>
<path d="M37.229 10.5752C38.6654 10.5752 40.0954 10.5752 41.5318 10.5752C41.6457 10.5752 41.766 10.5689 41.8799 10.5942C42.152 10.6512 42.3038 10.8347 42.3165 11.1068C42.3291 11.3599 42.2026 11.5497 41.9558 11.6446C41.8166 11.7016 41.6647 11.6889 41.5192 11.6889C38.6401 11.6889 35.7609 11.6889 32.8818 11.6889C32.7363 11.6889 32.5844 11.7016 32.4452 11.6383C32.1921 11.5307 32.0529 11.3472 32.0845 11.0751C32.1162 10.803 32.2807 10.6385 32.5464 10.5879C32.6477 10.5689 32.7553 10.5752 32.8628 10.5752C34.3182 10.5752 35.7736 10.5752 37.229 10.5752Z" fill="white"/>
<path d="M39.2296 14.648C38.4576 14.648 37.6919 14.648 36.9199 14.648C36.8124 14.648 36.7111 14.648 36.6036 14.6353C36.3188 14.591 36.1163 14.3633 36.129 14.0912C36.1416 13.8064 36.3062 13.6229 36.5846 13.5596C36.6858 13.5343 36.7934 13.5406 36.901 13.5406C38.4513 13.5406 40.0016 13.5406 41.5455 13.5406C41.6278 13.5406 41.7164 13.5343 41.7986 13.547C42.1087 13.5849 42.3112 13.8001 42.3175 14.0848C42.3238 14.3822 42.115 14.629 41.786 14.6417C41.2924 14.6607 40.7989 14.648 40.299 14.6543C39.9446 14.648 39.5903 14.648 39.2296 14.648Z" fill="white"/>
<path d="M39.5382 20.286C38.8422 20.286 38.1461 20.286 37.4501 20.286C37.0071 20.286 36.754 20.0835 36.754 19.7292C36.7477 19.3812 37.0071 19.166 37.4437 19.166C38.8485 19.166 40.2469 19.166 41.6517 19.166C42.063 19.166 42.3161 19.3812 42.3224 19.7165C42.3224 20.0519 42.0693 20.2797 41.6643 20.2797C40.9493 20.286 40.2469 20.286 39.5382 20.286Z" fill="white"/>
<path d="M33.4572 14.6438C33.1851 14.6438 32.913 14.6564 32.6409 14.6438C32.2992 14.6248 32.0714 14.3907 32.0778 14.0869C32.0841 13.7959 32.3056 13.5617 32.6283 13.5491C33.1725 13.5364 33.723 13.5301 34.2672 13.5491C34.5962 13.5617 34.7987 13.7832 34.805 14.0933C34.805 14.4033 34.6089 14.6121 34.2798 14.6438C34.2608 14.6438 34.2355 14.6501 34.2165 14.6501C33.9634 14.6501 33.7103 14.6501 33.4572 14.6438C33.4572 14.6501 33.4572 14.6438 33.4572 14.6438Z" fill="white"/>
<path d="M31.1541 23.3814C30.8567 23.3814 30.61 23.1472 30.6036 22.8435C30.5973 22.5335 30.8504 22.2614 31.1541 22.2677C31.4452 22.274 31.692 22.5271 31.692 22.8245C31.692 23.1283 31.4452 23.3814 31.1541 23.3814Z" fill="white"/>
<path d="M32.5271 2.13361C32.9827 2.13361 33.4004 2.27282 33.7674 2.54491C34.0458 2.7474 34.1091 3.03847 33.9572 3.29158C33.7927 3.55102 33.5143 3.62695 33.2105 3.49407C33.046 3.41814 32.9068 3.31057 32.7233 3.2726C32.5968 3.24096 32.4765 3.23463 32.35 3.27893C32.2677 3.31057 32.1854 3.34853 32.1854 3.44345C32.1791 3.53204 32.2677 3.55102 32.3373 3.58266C32.5968 3.69023 32.8625 3.7978 33.1283 3.90537C33.3244 3.98131 33.5143 4.07622 33.6725 4.21543C34.0774 4.55713 34.2609 4.98742 34.1344 5.51262C33.9952 6.07579 33.6092 6.42381 33.0587 6.56302C32.3183 6.74653 31.6602 6.55037 31.1034 6.0315C30.8187 5.76573 30.7997 5.43669 31.0275 5.19623C31.2553 4.95578 31.54 4.95578 31.8374 5.20889C32.0715 5.41138 32.331 5.5316 32.641 5.50629C32.8182 5.49364 32.9954 5.44302 33.027 5.24686C33.0587 5.06335 32.8815 5.0064 32.7486 4.94945C32.4512 4.81657 32.1412 4.709 31.8437 4.57611C31.2996 4.33566 31.0401 3.93701 31.0591 3.39916C31.0781 2.86762 31.4388 2.4057 31.9703 2.2222C32.1475 2.15892 32.331 2.12728 32.5271 2.13361Z" fill="white"/>
<path d="M38.6406 6.01622C38.6216 6.31995 38.5014 6.51611 38.2293 6.58572C37.9635 6.65532 37.6851 6.57939 37.6218 6.32628C37.4826 5.73147 37.0713 5.77577 36.6157 5.76944C36.2424 5.76311 36.0399 5.84537 35.9323 6.22504C35.8374 6.56041 35.4957 6.69329 35.1983 6.56673C34.9199 6.45283 34.7933 6.1491 34.9136 5.82639C35.3122 4.75067 35.7235 3.67496 36.1285 2.60557C36.2361 2.31449 36.4322 2.12466 36.7676 2.13732C37.084 2.14364 37.2612 2.32715 37.3687 2.6119C37.7547 3.64965 38.1534 4.68107 38.5394 5.71882C38.59 5.82006 38.6153 5.93396 38.6406 6.01622ZM36.7613 4.21281C36.679 4.35835 36.5335 4.47858 36.6157 4.64943C36.6347 4.68739 36.8435 4.70005 36.8752 4.65576C36.9891 4.49756 36.8182 4.36468 36.7613 4.21281Z" fill="white"/>
<path d="M25.7755 4.44099C25.959 3.88415 26.1236 3.39059 26.2881 2.8907C26.3324 2.75149 26.3767 2.60595 26.4399 2.47307C26.5728 2.19465 26.8449 2.07442 27.117 2.16301C27.4018 2.25792 27.5599 2.53634 27.4714 2.8464C27.3764 3.18177 27.2562 3.50449 27.1423 3.83986C26.9019 4.56755 26.6614 5.30157 26.4146 6.02926C26.2754 6.44689 26.0793 6.61774 25.7629 6.61141C25.3959 6.60508 25.2313 6.37095 25.1238 6.05457C24.7694 5.02947 24.4087 4.00438 24.0544 2.97929C23.9152 2.58064 24.0354 2.27691 24.3518 2.16301C24.6745 2.04911 24.9529 2.2073 25.0985 2.60595C25.2946 3.13748 25.4781 3.68167 25.6616 4.2132C25.6869 4.27015 25.7186 4.32077 25.7755 4.44099Z" fill="white"/>
<path d="M28.5726 4.3603C28.5726 3.8351 28.5663 3.30357 28.5726 2.77836C28.579 2.37972 28.7815 2.13926 29.1168 2.13293C29.4648 2.12661 29.68 2.36706 29.68 2.78469C29.6863 3.84142 29.6863 4.89183 29.68 5.94856C29.68 6.35987 29.4585 6.61297 29.1231 6.61297C28.7878 6.61297 28.579 6.35987 28.5726 5.94223C28.5726 5.4107 28.5726 4.8855 28.5726 4.3603Z" fill="white"/>
</svg>
