<svg width="23" height="23" viewBox="0 0 23 23" fill="none" xmlns="http://www.w3.org/2000/svg">
<path d="M11.4603 5.58249C8.20891 5.58249 5.58636 8.20563 5.58636 11.4577C5.58636 14.7098 8.20891 17.3329 11.4603 17.3329C14.7116 17.3329 17.3342 14.7098 17.3342 11.4577C17.3342 8.20563 14.7116 5.58249 11.4603 5.58249ZM11.4603 15.2774C9.35916 15.2774 7.64146 13.5644 7.64146 11.4577C7.64146 9.35102 9.35405 7.63805 11.4603 7.63805C13.5665 7.63805 15.2791 9.35102 15.2791 11.4577C15.2791 13.5644 13.5614 15.2774 11.4603 15.2774ZM18.9445 5.34216C18.9445 6.10405 18.3311 6.71254 17.5745 6.71254C16.8127 6.71254 16.2044 6.09894 16.2044 5.34216C16.2044 4.58539 16.8179 3.97179 17.5745 3.97179C18.3311 3.97179 18.9445 4.58539 18.9445 5.34216ZM22.8349 6.73299C22.748 4.8973 22.3288 3.27126 20.9843 1.93156C19.6449 0.591869 18.0192 0.172575 16.1839 0.0805351C14.2924 -0.026845 8.623 -0.026845 6.73149 0.0805351C4.90132 0.167462 3.27564 0.586756 1.93113 1.92645C0.586625 3.26615 0.172537 4.89219 0.0805171 6.72788C-0.026839 8.61981 -0.026839 14.2905 0.0805171 16.1824C0.167425 18.0181 0.586625 19.6442 1.93113 20.9839C3.27564 22.3236 4.89621 22.7429 6.73149 22.8349C8.623 22.9423 14.2924 22.9423 16.1839 22.8349C18.0192 22.748 19.6449 22.3287 20.9843 20.9839C22.3237 19.6442 22.7429 18.0181 22.8349 16.1824C22.9423 14.2905 22.9423 8.62493 22.8349 6.73299ZM20.3913 18.2124C19.9925 19.2147 19.2206 19.9868 18.2135 20.3907C16.7054 20.989 13.1268 20.8509 11.4603 20.8509C9.7937 20.8509 6.21004 20.9839 4.70706 20.3907C3.70507 19.9919 2.93312 19.2198 2.52926 18.2124C1.93113 16.704 2.06916 13.1247 2.06916 11.4577C2.06916 9.79077 1.93625 6.20632 2.52926 4.70299C2.92801 3.70078 3.69995 2.92867 4.70706 2.52471C6.21516 1.92645 9.7937 2.06451 11.4603 2.06451C13.1268 2.06451 16.7105 1.93156 18.2135 2.52471C19.2155 2.92355 19.9874 3.69567 20.3913 4.70299C20.9894 6.21143 20.8514 9.79077 20.8514 11.4577C20.8514 13.1247 20.9894 16.7091 20.3913 18.2124Z" fill="white"/>
</svg>
