<svg width="23" height="23" viewBox="0 0 23 23" fill="none" xmlns="http://www.w3.org/2000/svg">
<path d="M17.0301 10.3541C16.8709 10.3831 16.8967 10.2461 16.8838 10.1754C16.7634 9.61049 16.5526 9.07461 16.2386 8.58444C15.387 7.24683 14.174 6.40771 12.574 6.11277C12.3761 6.07954 12.2987 6.01308 12.3546 5.82614C12.3675 5.7846 12.3675 5.74306 12.3761 5.70568C12.4148 5.55198 12.3503 5.33596 12.488 5.26535C12.5998 5.21134 12.789 5.29442 12.9439 5.32766C15.3139 5.80122 17.301 7.77439 17.7398 10.084C17.7527 10.163 17.7914 10.2336 17.6666 10.2502C17.4559 10.2834 17.2451 10.3208 17.0301 10.3541Z" fill="white"/>
<path d="M12.2256 8.08962C12.2557 7.87361 12.2858 7.66591 12.3116 7.46236C12.3245 7.3502 12.3933 7.37928 12.4665 7.39174C13.5977 7.59113 14.4493 8.17685 15.0515 9.11152C15.2752 9.46046 15.4214 9.84263 15.5117 10.2414C15.5332 10.3411 15.5203 10.3785 15.4128 10.391C15.1934 10.42 14.9483 10.5364 14.7633 10.4782C14.5612 10.4159 14.6128 10.1168 14.5267 9.92986C14.1095 9.02428 13.417 8.44271 12.4062 8.22255C12.2256 8.18516 12.2256 8.18516 12.2256 8.08962Z" fill="white"/>
<path d="M22.986 11.1973C22.986 17.381 17.9341 22.3938 11.701 22.3938C9.72296 22.3938 7.86487 21.8879 6.24737 21.002L0 22.986L2.03649 16.977C1.00962 15.2905 0.41824 13.3102 0.41824 11.1965C0.41899 5.01289 5.46935 0 11.7025 0C17.9349 0.00149907 22.986 5.01364 22.986 11.1973ZM11.7002 1.78539C6.46923 1.78539 2.21413 6.00827 2.21413 11.1995C2.21413 13.2593 2.88571 15.1661 4.02125 16.7176L2.83699 20.2127L6.48123 19.0547C7.9803 20.0381 9.77393 20.6107 11.7002 20.6107C16.9312 20.6107 21.1878 16.3886 21.1878 11.1973C21.1893 6.00827 16.932 1.78539 11.7002 1.78539ZM17.3997 13.7764C17.3292 13.6633 17.1449 13.5943 16.869 13.4564C16.5939 13.3185 15.232 12.6551 14.9795 12.5652C14.7246 12.473 14.5402 12.4265 14.3558 12.7016C14.1737 12.9767 13.643 13.5943 13.4804 13.7787C13.3192 13.9623 13.1581 13.9856 12.8815 13.8499C12.6049 13.7105 11.713 13.4227 10.6561 12.488C9.83389 11.7594 9.27849 10.8623 9.11809 10.5872C8.95544 10.3128 9.1016 10.1644 9.23876 10.028C9.36244 9.90435 9.51534 9.70722 9.65401 9.54607C9.79267 9.38642 9.83839 9.27324 9.93058 9.08961C10.0213 8.90597 9.97556 8.74632 9.90735 8.60766C9.83839 8.46974 9.28598 7.12058 9.05438 6.57117C8.82427 6.02251 8.59416 6.1132 8.43227 6.1132C8.27112 6.1132 8.08673 6.09072 7.90234 6.09072C7.71796 6.09072 7.41814 6.15743 7.16555 6.43251C6.91296 6.70759 6.1979 7.37092 6.1979 8.72159C6.1979 10.0737 7.18804 11.3772 7.3267 11.5601C7.46611 11.7422 9.24101 14.6047 12.0525 15.7035C14.8655 16.8016 14.8655 16.435 15.3722 16.3886C15.8804 16.3421 17.0092 15.7252 17.2385 15.0851C17.4694 14.442 17.4694 13.8911 17.3997 13.7764Z" fill="white"/>
</svg>
