<svg width="23" height="16" viewBox="0 0 23 16" fill="none" xmlns="http://www.w3.org/2000/svg">
<path d="M22.4366 2.48789C22.173 1.5086 21.3965 0.737345 20.4106 0.475607C18.6236 0 11.4577 0 11.4577 0C11.4577 0 4.2919 0 2.50481 0.475607C1.51889 0.737386 0.742387 1.5086 0.47884 2.48789C0 4.26291 0 7.96632 0 7.96632C0 7.96632 0 11.6697 0.47884 13.4447C0.742387 14.424 1.51889 15.1632 2.50481 15.4249C4.2919 15.9005 11.4577 15.9005 11.4577 15.9005C11.4577 15.9005 18.6235 15.9005 20.4106 15.4249C21.3965 15.1632 22.173 14.424 22.4366 13.4447C22.9154 11.6697 22.9154 7.96632 22.9154 7.96632C22.9154 7.96632 22.9154 4.26291 22.4366 2.48789ZM9.11408 11.3287V4.6039L15.1033 7.9664L9.11408 11.3287Z" fill="white"/>
</svg>
