<svg width="23" height="23" viewBox="0 0 23 23" fill="none" xmlns="http://www.w3.org/2000/svg">
<path d="M22.9358 16.9875C22.8936 17.0382 22.8598 17.0889 22.8176 17.1311C21.9137 18.111 20.8071 18.7952 19.5907 19.2936C17.9942 19.9525 16.3132 20.2566 14.5899 20.3242C13.8888 20.358 13.1877 20.3326 12.4865 20.265C11.7854 20.1975 11.0843 20.0876 10.3916 19.9271C9.11608 19.6315 7.90812 19.1669 6.79308 18.4658C6.69171 18.3982 6.61568 18.3982 6.50587 18.4404C5.93145 18.6769 5.3317 18.8374 4.7066 18.8966C4.3856 18.9304 4.0646 18.905 3.74361 18.9135C3.63379 18.8459 3.62534 18.7868 3.71826 18.6769C4.05616 18.3053 4.30957 17.8745 4.43628 17.3845C4.56299 16.9199 4.61368 16.4722 4.30957 16.0414C3.83653 15.3572 3.49019 14.6054 3.21987 13.8282C2.57788 11.9867 2.35825 10.0945 2.49341 8.16008C2.58633 6.86764 2.8313 5.61744 3.28745 4.40948C3.81963 3.00723 4.57144 1.74014 5.71182 0.743361C5.87232 0.599757 6.04127 0.464601 6.21021 0.329444C6.32003 0.244971 6.42984 0.160498 6.54811 0.101367C6.60724 0.0760256 6.65792 0.0422364 6.7255 0.0337891C6.75929 0.0253419 6.80152 0.0253419 6.83531 0.0253419C6.8691 0.0253419 6.91134 0 6.93668 0C6.85221 0 6.76773 0 6.67481 0C6.2609 0 5.83853 0 5.42462 0C5.37393 0 5.3148 0 5.26412 0C4.68126 0.0168946 4.10684 0.0844729 3.54932 0.244971C3.11006 0.380128 2.67925 0.565968 2.29067 0.810939C1.91055 1.04746 1.57265 1.34312 1.277 1.68946C0.96445 2.05269 0.719479 2.45816 0.516744 2.88897C0.491402 2.9481 0.457613 3.01568 0.432271 3.07481C0.111274 3.81817 0.00145969 4.60377 0.0268015 5.40626C0.0183543 5.40626 0.0183543 5.40626 0.00990697 5.40626C0.00990697 5.9131 0.00990697 6.42838 0.00990697 6.93522C0.00990697 7.44206 0.00990697 7.95734 0.00990697 8.46418C0.00990697 8.97102 0.00990697 9.4863 0.00990697 9.99314C0.00990697 10.5 0.00990697 11.0153 0.00990697 11.5221C0.00990697 12.0289 0.00990697 12.5442 0.00990697 13.0511C0.00990697 13.5579 0.00990697 14.0732 0.00990697 14.58C0.00990697 15.2473 0.00145969 15.9231 0.00145969 16.5905C0.00145969 17.3845 -0.0238822 18.1786 0.136616 18.9642C0.356246 20.037 0.913766 21.0253 1.7416 21.7349C2.73838 22.5965 3.98858 22.9175 5.28101 22.9597C6.58189 23.002 7.89122 22.9597 9.1921 22.9597C10.5521 22.9597 11.9121 22.9597 13.2806 22.9597C14.7504 22.9597 16.2202 22.9597 17.6901 22.9597C17.7408 22.9259 17.7914 22.9428 17.8421 22.9428C18.4503 22.9428 19.0501 22.8584 19.6329 22.6556C21.0014 22.1657 21.9813 21.2534 22.5473 19.9102C22.7162 19.5048 22.8345 19.0824 22.902 18.6516C22.9696 18.2039 22.9612 17.7562 22.9696 17.3085C22.9696 17.2747 22.9781 17.2156 22.9781 17.1564C22.995 17.0973 22.9865 17.0128 22.9358 16.9875Z" fill="white"/>
<path d="M8.49927 8.53057C7.53628 8.53057 6.58174 8.53057 5.6272 8.53057C5.48359 8.53057 5.44136 8.49678 5.44981 8.35318C5.4667 8.14199 5.45825 7.93081 5.44981 7.71963C5.44136 7.60981 5.48359 7.58447 5.59341 7.58447C5.89751 7.59292 6.21006 7.58447 6.51416 7.58447C7.59542 7.58447 8.67667 7.58447 9.75792 7.58447C9.86773 7.58447 9.90997 7.60981 9.90152 7.72808C9.87618 8.03218 9.79171 8.29404 9.59742 8.53902C8.63443 9.73853 7.67989 10.9465 6.72535 12.1545C6.70845 12.1713 6.7 12.1882 6.69156 12.2136C6.75069 12.2474 6.80137 12.2305 6.85205 12.2305C7.81504 12.2305 8.78648 12.2305 9.74947 12.2305C9.85929 12.2305 9.90997 12.2474 9.90152 12.3741C9.89308 12.5177 9.91842 12.6697 9.88463 12.8133C9.83395 13.0161 9.71568 13.1174 9.51295 13.1174C8.16983 13.1174 6.82671 13.1174 5.47515 13.1174C5.34844 13.1174 5.33154 13.0752 5.33154 12.9485C5.33999 12.6444 5.44136 12.3994 5.6272 12.1629C6.57329 10.9887 7.51094 9.81455 8.45704 8.63194C8.46549 8.61504 8.51617 8.5897 8.49927 8.53057Z" fill="white"/>
<path d="M14.4367 9.04747C14.4367 8.96299 14.4114 8.93765 14.3269 8.93765C14.1411 8.93765 13.9637 8.93765 13.7778 8.93765C13.5329 8.93765 13.5329 8.93765 13.5498 9.19107C13.5498 9.19952 13.5413 9.19952 13.5244 9.21641C13.0429 8.90386 12.5192 8.74336 11.9363 8.84473C11.3535 8.9461 10.8889 9.24175 10.5341 9.7148C9.96811 10.4751 9.95122 11.7168 10.7791 12.5362C11.4295 13.1782 12.5952 13.4063 13.516 12.7474C13.5329 12.7896 13.5498 12.815 13.5582 12.8487C13.6342 13.0515 13.7694 13.1444 13.989 13.1275C14.0988 13.1191 14.2086 13.1191 14.3185 13.1275C14.4029 13.1275 14.4283 13.1106 14.4283 13.0261C14.4367 11.6999 14.4367 10.3737 14.4367 9.04747ZM12.308 12.2574C11.59 12.2574 11.0156 11.6915 11.0156 10.9903C11.0156 10.2723 11.5815 9.69791 12.2742 9.69791C12.9838 9.69791 13.5667 10.2808 13.5582 10.965C13.5582 11.6915 13.0007 12.2574 12.308 12.2574Z" fill="white"/>
<path d="M18.965 8.78467C17.774 8.78467 16.7856 9.78145 16.7856 10.9725C16.7856 12.1889 17.7571 13.1688 18.965 13.1688C20.1392 13.1773 21.1529 12.1467 21.1444 10.9556C21.1444 9.78989 20.1392 8.78467 18.965 8.78467ZM18.9566 12.2734C18.247 12.2734 17.6726 11.699 17.6726 10.9894C17.6726 10.2798 18.2555 9.68853 18.9481 9.68853C19.6577 9.68853 20.2406 10.2714 20.2406 10.981C20.2406 11.7074 19.6746 12.2734 18.9566 12.2734Z" fill="white"/>
<path d="M16.1522 10.3227C16.1522 11.2096 16.1522 12.0966 16.1522 12.9751C16.1522 13.0849 16.1353 13.1272 16.017 13.1187C15.8818 13.1103 15.7382 13.1272 15.6031 13.1272C15.3243 13.1187 15.2061 13.0005 15.2061 12.7217C15.2061 11.4462 15.2061 10.1706 15.2061 8.88665C15.2061 8.47273 15.2061 8.06726 15.2061 7.65334C15.2061 7.55198 15.2314 7.51819 15.3328 7.52663C15.5693 7.53508 15.8058 7.53508 16.0339 7.52663C16.1437 7.52663 16.1606 7.56042 16.1606 7.66179C16.1522 8.54875 16.1522 9.43572 16.1522 10.3227Z" fill="white"/>
</svg>
